<?xml version="1.0" standalone="no"?>
<!DOCTYPE svg PUBLIC "-//W3C//DTD SVG 20010904//EN"
 "http://www.w3.org/TR/2001/REC-SVG-20010904/DTD/svg10.dtd">
<svg version="1.0" xmlns="http://www.w3.org/2000/svg"
 width="260.000000pt" height="260.000000pt" viewBox="0 0 260.000000 260.000000"
 preserveAspectRatio="xMidYMid meet">
<metadata>
Created by potrace 1.11, written by Peter Selinger 2001-2013
</metadata>
<g transform="translate(0.000000,260.000000) scale(0.100000,-0.100000)"
fill="#000000" stroke="none">
<path d="M0 1300 l0 -1300 1300 0 1300 0 0 1300 0 1300 -1300 0 -1300 0 0
-1300z m1560 756 c0 -15 30 -26 73 -26 17 0 27 -5 27 -15 0 -8 9 -15 20 -15
13 0 20 -7 20 -20 0 -13 7 -20 20 -20 11 0 20 -7 20 -15 0 -8 9 -15 20 -15 13
0 20 -7 20 -20 0 -11 7 -20 15 -20 8 0 15 -9 15 -20 0 -13 7 -20 20 -20 16 0
20 -7 20 -35 0 -23 5 -35 14 -35 9 0 17 -15 21 -40 4 -25 12 -40 21 -40 11 0
14 -16 14 -70 l0 -70 -130 0 -130 0 0 55 c0 42 -3 55 -15 55 -8 0 -15 9 -15
20 0 13 -7 20 -20 20 -11 0 -20 7 -20 15 0 8 -7 15 -15 15 -8 0 -15 9 -15 20
0 13 -7 20 -20 20 -11 0 -20 7 -20 15 0 13 -39 15 -290 15 l-290 0 0 -482 c0
-266 -3 -493 -6 -505 -6 -23 -5 -23 94 -23 55 0 114 -3 131 -6 l31 -6 0 -124
0 -124 -255 0 -255 0 0 765 0 765 440 0 c368 0 440 -2 440 -14z m360 -946 c0
-166 -2 -200 -14 -200 -9 0 -17 -15 -21 -40 -4 -25 -12 -40 -21 -40 -9 0 -14
-12 -14 -35 0 -28 -4 -35 -20 -35 -13 0 -20 -7 -20 -20 0 -11 -7 -20 -15 -20
-8 0 -15 -7 -15 -16 0 -9 -9 -18 -20 -21 -11 -3 -20 -12 -20 -19 0 -8 -9 -14
-20 -14 -13 0 -20 -7 -20 -20 0 -16 -7 -20 -35 -20 -23 0 -35 -5 -35 -14 0 -9
-15 -17 -40 -21 -25 -4 -40 -12 -40 -21 0 -11 -16 -14 -70 -14 l-70 0 0 124 0
124 40 7 c25 4 40 12 40 21 0 9 12 14 35 14 28 0 35 4 35 20 0 11 7 20 15 20
8 0 15 7 15 15 0 8 9 15 20 15 13 0 20 7 20 20 0 11 7 20 15 20 13 0 15 27 15
179 0 210 -18 187 153 190 l107 1 0 -200z"/>
</g>
</svg>
